<?xml version="1.0" standalone="no"?>
<!DOCTYPE svg PUBLIC "-//W3C//DTD SVG 1.1//EN"
  "http://www.w3.org/Graphics/SVG/1.1/DTD/svg11.dtd">
<svg version="1.1" xmlns="http://www.w3.org/2000/svg" xmlns:xlink="http://www.w3.org/1999/xlink" width="1280" height="720" viewBox="-1040.8888888888887 -32 1889.7777777777776 1063" id="ccdiagram"><filter id="grayscale"><feColorMatrix type="matrix" values="0.3333 0.3333 0.3333 0 0 0.3333 0.3333 0.3333 0 0 0.3333 0.3333 0.3333 0 0 0 0 0 1 0"></feColorMatrix></filter><defs><style type="text/css">@import url(&#x27;https://fonts.googleapis.com/css?family=Open+Sans:400,700|Inconsolata:400&#x27;);</style></defs><g><g style="pointer-events:none"><g><pattern id="gridPatternMinor" x="0" y="37" width="128" height="74" patternUnits="userSpaceOnUse"><path d="M 0 0 L 128 74" stroke="#eee" stroke-width="1"></path><path d="M 128 0 L 0 74" stroke="#eee" stroke-width="1"></path></pattern><polygon points="0 0, 768 444, -192 999, -960 555" fill="url(#gridPatternMinor)"></polygon></g><polygon points="-960 555, -960 565, -192 1009, -192 999" stroke-linejoin="round" stroke="#54626f" stroke-width="1" fill="#f9f9f9"></polygon><polygon points="-192 1009, 768 454, 768 444, -192 999" stroke-linejoin="round" stroke="#54626f" stroke-width="1" fill="#e2e2e2"></polygon></g><g pointer-events="auto"></g><g style="pointer-events:none"><g><pattern id="gridPatternMajor" x="0" y="37" width="128" height="74" patternUnits="userSpaceOnUse"><path d="M 64 0 L 128 37 64 74 0 37 z" stroke="#54626f" stroke-width="1" fill="none"></path></pattern><polygon points="0 0, 768 444, -192 999, -960 555" fill="url(#gridPatternMajor)"></polygon></g></g><g pointer-events="auto"></g><g></g><g pointer-events="auto"></g><g></g><g pointer-events="auto"><g opacity="1"><g id="0337c4da-0298-44ed-af03-16cbdb2332e5"><svg x="80" y="213" overflow="visible"><polygon points="0 0, 319 185, 255 222, -64 37" fill="#f5b720"></polygon><polygon points="0 0, 319 185, 255 222, -64 37" fill="none" stroke-width="20" stroke="#f5b720" opacity="1"></polygon><g cursor="nwse-resize"><polygon points="0 0, -19 -11, 13 -30, -83 -11, -115 44, -83 26, -64 37" fill="#f5b720"></polygon><polygon points="319 185, 339 196, 371 177, 339 233, 243 251, 275 233, 255 222" fill="#f5b720"></polygon></g></svg></g></g></g><g pointer-events="none"></g><g pointer-events="auto"><g><g cursor="cell"><line x1="-476" y1="719" x2="-106" y2="505" stroke="red" stroke-width="8" opacity="0"></line><line x1="-476" y1="719" x2="-106" y2="505" stroke="#000000" stroke-width="2" stroke-linecap="round"></line><polygon points="-96 500, -122 505, -108 507, -105 514, -96 500" stroke-linejoin="round" fill="#000000" stroke="#000000" stroke-width="1"></polygon></g></g><g><g><g cursor="cell"><line x1="0" y1="296" x2="38" y2="274" stroke="red" stroke-width="8" opacity="0"></line><line x1="0" y1="296" x2="38" y2="274" stroke="#000000" stroke-width="2" stroke-linecap="none"></line><polygon points="48 268, 22 274, 36 275, 39 283, 48 268" stroke-linejoin="round" fill="#000000" stroke="#000000" stroke-width="1"></polygon></g><g cursor="cell"><line x1="0" y1="315" x2="0" y2="296" stroke="red" stroke-width="8" opacity="0"></line><line x1="0" y1="315" x2="0" y2="296" stroke="#000000" stroke-width="2" stroke-linecap="round"></line></g><g cursor="cell"><line x1="112" y1="379" x2="166" y2="348" stroke="red" stroke-width="8" opacity="0"></line><line x1="112" y1="379" x2="166" y2="348" stroke="#000000" stroke-width="2" stroke-linecap="none"></line><polygon points="176 342, 150 347, 163 349, 166 357, 176 342" stroke-linejoin="round" fill="#000000" stroke="#000000" stroke-width="1"></polygon></g><g cursor="cell"><line x1="255" y1="444" x2="294" y2="421" stroke="red" stroke-width="8" opacity="0"></line><line x1="255" y1="444" x2="294" y2="421" stroke="#000000" stroke-width="2" stroke-linecap="none"></line><polygon points="303 416, 278 421, 291 423, 294 431, 303 416" stroke-linejoin="round" fill="#000000" stroke="#000000" stroke-width="1"></polygon></g><g cursor="cell"><line x1="223" y1="444" x2="255" y2="444" stroke="red" stroke-width="8" opacity="0"></line><line x1="223" y1="444" x2="255" y2="444" stroke="#000000" stroke-width="2" stroke-linecap="round"></line></g><g cursor="cell"><line x1="0" y1="315" x2="223" y2="444" stroke="red" stroke-width="8" opacity="0"></line><line x1="0" y1="315" x2="223" y2="444" stroke="#000000" stroke-width="2" stroke-linecap="round"></line></g><g cursor="cell"><line x1="-15" y1="453" x2="112" y2="379" stroke="red" stroke-width="8" opacity="0"></line><line x1="-15" y1="453" x2="112" y2="379" stroke="#000000" stroke-width="2" stroke-linecap="round"></line></g></g></g></g><g pointer-events="auto"><g opacity="1"><g id="c1c1565b-a8a6-4f7b-a7b3-9e91839873a5" transform="translate(0 0)"><svg x="16" y="176" height="111" width="128" fill-rule="evenodd"><path d="M64 74v37l64-37V37L64 74z" fill="#b8b8bb"></path><path d="M0 37v37l64 37V74L0 37z" fill="#d2d2d4"></path><path d="M0 37L64 0l64 37-64 37L0 37z" fill="#ececed"></path><path d="M64 73.407l62.111-35.86.514.889-62.487 36.078h-.276L.743 38.072l.514-.89L64 73.407z" fill="#83838a"></path><path d="M63.486 74h1.027v36h-1.027z" fill="#83838a"></path><path d="M128 37v37l-64 37L0 74V37L64 0l64 37zM2.054 38.185v34.63L64 108.627l61.946-35.812v-34.63L64 2.373 2.054 38.185z" fill="#000000"></path></svg><svg x="71" y="193" width="60" height="35" style="overflow:visible;cursor:default"><rect transform="matrix(0.707 0.409 -0.707 0.409 0 0)" width="60" height="35" rx="5" ry="5" fill="#4286c5"></rect><text transform="matrix(0.707 0.409 -0.707 0.409 0 0)" font-family="Open Sans" font-size="20pt" text-anchor="middle" x="50%" y="75%" fill="#ffffff"><tspan>T2</tspan></text></svg></g></g><g opacity="1"><g id="5be9f72e-e700-466e-806d-e7c959722c61" transform="translate(0 0)"><svg x="144" y="250" height="111" width="128" fill-rule="evenodd"><path d="M64 74v37l64-37V37L64 74z" fill="#b8b8bb"></path><path d="M0 37v37l64 37V74L0 37z" fill="#d2d2d4"></path><path d="M0 37L64 0l64 37-64 37L0 37z" fill="#ececed"></path><path d="M64 73.407l62.111-35.86.514.889-62.487 36.078h-.276L.743 38.072l.514-.89L64 73.407z" fill="#83838a"></path><path d="M63.486 74h1.027v36h-1.027z" fill="#83838a"></path><path d="M128 37v37l-64 37L0 74V37L64 0l64 37zM2.054 38.185v34.63L64 108.627l61.946-35.812v-34.63L64 2.373 2.054 38.185z" fill="#000000"></path></svg><svg x="199" y="267" width="60" height="35" style="overflow:visible;cursor:default"><rect transform="matrix(0.707 0.409 -0.707 0.409 0 0)" width="60" height="35" rx="5" ry="5" fill="#4286c5"></rect><text transform="matrix(0.707 0.409 -0.707 0.409 0 0)" font-family="Open Sans" font-size="20pt" text-anchor="middle" x="50%" y="75%" fill="#ffffff"><tspan>T2</tspan></text></svg></g></g><g opacity="1"><g id="43152df1-6a62-4fb4-a2b3-3480c5993cd7" transform="translate(0 0)"><svg x="271" y="323" height="111" width="128" fill-rule="evenodd"><path d="M64 74v37l64-37V37L64 74z" fill="#b8b8bb"></path><path d="M0 37v37l64 37V74L0 37z" fill="#d2d2d4"></path><path d="M0 37L64 0l64 37-64 37L0 37z" fill="#ececed"></path><path d="M64 73.407l62.111-35.86.514.889-62.487 36.078h-.276L.743 38.072l.514-.89L64 73.407z" fill="#83838a"></path><path d="M63.486 74h1.027v36h-1.027z" fill="#83838a"></path><path d="M128 37v37l-64 37L0 74V37L64 0l64 37zM2.054 38.185v34.63L64 108.627l61.946-35.812v-34.63L64 2.373 2.054 38.185z" fill="#000000"></path></svg><svg x="327" y="341" width="60" height="35" style="overflow:visible;cursor:default"><rect transform="matrix(0.707 0.409 -0.707 0.409 0 0)" width="60" height="35" rx="5" ry="5" fill="#4286c5"></rect><text transform="matrix(0.707 0.409 -0.707 0.409 0 0)" font-family="Open Sans" font-size="20pt" text-anchor="middle" x="50%" y="75%" fill="#ffffff"><tspan>T2</tspan></text></svg></g></g><g opacity="1"><g id="e156d1a7-f9a5-4c36-978d-0db095eeb874" transform="translate(0 0)"><svg x="-112" y="416" height="94" width="97" fill-rule="evenodd"><path d="M0 18.6v18.6l32.333 18.6h32.334L97 37.2V18.6L64.667 0H32.333L0 18.6z" fill="#ececed"></path><path d="M64.667 55.8L97 37.2v37.2L64.667 93V55.8z" fill="#b8b8bb"></path><path d="M32.333 55.8h32.334V93H32.333V55.8zM0 37.2v37.2L32.333 93V55.8L0 37.2z" fill="#d2d2d4"></path><g fill="none" stroke="#83838a" stroke-width="1.04"><path d="M.955 37.877L32.333 55.8h32.334l31.378-17.923M32.333 55.8v36.211M64.667 55.8v36.574"></path></g><path d="M97 18.6v55.8L64.667 93H32.333L0 74.4V18.6L32.333 0h32.334L97 18.6zM32.865 1.989L1.989 19.751v53.498l30.876 17.762h31.27l30.876-17.762V19.751L64.135 1.989h-31.27z" fill="#000000"></path><path d="M69.912 15.583c11.818 6.798 11.818 17.836 0 24.635-11.817 6.798-31.007 6.798-42.824 0-11.818-6.799-11.818-17.837 0-24.635 11.817-6.799 31.007-6.799 42.824 0z" fill="#4286c5"></path><path d="M49.584 14.774c1.824 1.049 1.824 2.753 0 3.802-1.824 1.05-4.786 1.05-6.61 0-1.824-1.049-1.824-2.753 0-3.802 1.824-1.05 4.786-1.05 6.61 0zM60.451 21.025c1.825 1.049 1.825 2.753 0 3.803-1.824 1.049-4.786 1.049-6.61 0-1.824-1.05-1.824-2.754 0-3.803s4.786-1.049 6.61 0zM71.319 27.276c1.824 1.05 1.824 2.754 0 3.803-1.825 1.049-4.787 1.049-6.611 0-1.824-1.049-1.824-2.753 0-3.803 1.824-1.049 4.786-1.049 6.611 0zM38.497 33.654c1.824 1.05 1.824 2.754 0 3.803-1.825 1.05-4.787 1.05-6.611 0-1.824-1.049-1.824-2.753 0-3.803 1.824-1.049 4.786-1.049 6.611 0z" fill="#fff"></path><path d="M47.458 15.878c.453.26.393.717-.133 1.02-.526.303-1.32.337-1.773.076-.452-.26-.392-.717.133-1.019.526-.303 1.321-.337 1.773-.077z" fill="#fff"></path><path d="M48.111 15.621c1.012.582 1.012 1.526 0 2.108-1.011.582-2.653.582-3.664 0-1.012-.582-1.012-1.526 0-2.108 1.011-.582 2.653-.582 3.664 0zM58.978 21.872c1.012.582 1.012 1.527 0 2.108-1.011.582-2.653.582-3.664 0-1.012-.581-1.012-1.526 0-2.108 1.011-.581 2.653-.581 3.664 0zM69.846 28.124c1.011.581 1.011 1.526 0 2.108-1.012.582-2.654.582-3.665 0-1.011-.582-1.011-1.527 0-2.108 1.011-.582 2.653-.582 3.665 0z" fill="#4286c5"></path><path d="M37.024 34.502c1.011.582 1.011 1.526 0 2.108-1.012.582-2.654.582-3.665 0-1.011-.582-1.011-1.526 0-2.108 1.011-.582 2.653-.582 3.665 0z" fill="#fff"></path><g fill="#fff"><path d="M52.301 25.172L37.719 33.56l.482.834 14.584-8.388-.484-.834z"></path><path d="M46.993 26.089l6.654-1.146-4.324 5.168c.189-1.691-.757-3.313-2.33-4.022z" stroke="#fff" stroke-width=".36"></path></g><g fill="#fff"><path d="M43.488 19.937l-6.057 13.797.886.387 6.056-13.798-.885-.386z"></path><path d="M39.76 23.812l4.676-4.854-.405 6.716c-.855-1.474-2.582-2.221-4.271-1.862z" stroke="#fff" stroke-width=".36"></path></g><g fill="#fff"><path d="M61.953 30.061l-23.985 3.483.14.955 23.985-3.486-.14-.952z"></path><path d="M56.68 28.957l6.608 1.387-5.936 3.209c.804-1.503.526-3.358-.672-4.596z" stroke="#fff" stroke-width=".36"></path></g><path d="M37.96 33.977l13.12-7.547M37.873 33.927l5.792-13.134M38.037 34.022l22.478-3.281" fill="#fff" stroke="#fff" stroke-width="1.93"></path></svg></g></g><g opacity="1"><g id="95935d6e-4293-4d04-9210-a9bf7247776e" transform="translate(0 0)"><svg x="-536" y="654" height="95.068" width="63" viewBox="0 0 16.669 25.153"><path d="M16.668 22.903q0 1.64-.864 2.091-.865.451-2.297-.376L3.161 18.645q-1.433-.827-2.297-2.276Q.001 14.921 0 13.28q0-.723.042-1.39.042-.666.166-1.394.124-.727.313-1.302.19-.575.51-1.039.319-.464.733-.683.414-.22 1.012-.147.598.073 1.32.49.107.06.497.58.391.52.882 1.165.491.646 1.279 1.394.788.75 1.58 1.207.793.458 1.58.618.788.161 1.28.083.49-.079.881-.147.39-.069.497-.007.722.416 1.32 1.035.598.619 1.013 1.315.414.697.734 1.531t.509 1.627q.19.793.313 1.664.124.872.166 1.586.042.713.042 1.438zM12.88 8.51q0 2.173-1.332 2.942-1.332.769-3.214-.318-1.882-1.086-3.214-3.393Q3.79 5.434 3.79 3.26q0-2.173 1.331-2.942 1.332-.77 3.214.317t3.214 3.394q1.332 2.306 1.332 4.48z" fill="#000000"></path></svg></g></g></g><g pointer-events="auto"></g><g pointer-events="auto"><g opacity="1"><g id="467425bd-c095-493d-8e11-85fe2094749b" transform="translate(0 0)"><svg x="-288" y="611" overflow="visible"><g transform="scale(1.7469281074217107) matrix(0.707 0.409 -0.707 0.409 0 0)"><circle cx="0" cy="0" fill="#000000" r="23"></circle><svg width="21" height="32" x="-10.5" y="-16" style="fill:#ffffff"><svg xmlns="http://www.w3.org/2000/svg" width="21" height="32" viewBox="0 0 21 32"><path d="M5.714 13.714h9.143v-3.429c0-2.518-2.054-4.571-4.571-4.571s-4.571 2.054-4.571 4.571v3.429zm14.857 1.715v10.286c0 .946-.768 1.714-1.714 1.714H1.714A1.715 1.715 0 0 1 0 25.715V15.429c0-.946.768-1.714 1.714-1.714h.571v-3.429c0-4.393 3.607-8 8-8s8 3.607 8 8v3.429h.571c.946 0 1.714.768 1.714 1.714z"/></svg></svg></g></svg></g></g></g><g pointer-events="auto"><g opacity="1"><g id="3942b743-9578-4c88-b0f9-ca3a4c02f4fb"><svg x="-64" y="518" overflow="visible"><text stroke="#ffffff" stroke-width="4" font-family="Open Sans" y="36.5" font-size="25pt" fill="#000000" font-weight="bold" transform="matrix(0.707 -0.409 0.707 0.409 0 0)" xml:space="preserve"><tspan x="8" dy="0">ELB</tspan></text><text font-family="Open Sans" y="36.5" font-size="25pt" fill="#000000" font-weight="bold" transform="matrix(0.707 -0.409 0.707 0.409 0 0)" xml:space="preserve"><tspan x="8" dy="0">ELB</tspan></text></svg></g></g><g opacity="1"><g id="eefa1911-15b1-4d25-94f9-ccf33947be8f"><svg x="368" y="509" overflow="visible"><text stroke="#ffffff" stroke-width="4" font-family="Open Sans" y="36.5" font-size="25pt" fill="#000000" font-weight="bold" transform="matrix(0.707 -0.409 0.707 0.409 0 0)" xml:space="preserve"><tspan x="8" dy="0">Auto Scaling</tspan></text><text font-family="Open Sans" y="36.5" font-size="25pt" fill="#000000" font-weight="bold" transform="matrix(0.707 -0.409 0.707 0.409 0 0)" xml:space="preserve"><tspan x="8" dy="0">Auto Scaling</tspan></text></svg></g></g><g opacity="1"><g id="65565d8c-0ccf-4076-a38e-f952364a7bf2"><svg x="335" y="434" overflow="visible"><text stroke="#ffffff" stroke-width="4" font-family="Open Sans" y="36.5" font-size="25pt" fill="#000000" font-weight="bold" transform="matrix(0.707 -0.409 0.707 0.409 0 0)" xml:space="preserve"><tspan x="8" dy="0">EC2</tspan></text><text font-family="Open Sans" y="36.5" font-size="25pt" fill="#000000" font-weight="bold" transform="matrix(0.707 -0.409 0.707 0.409 0 0)" xml:space="preserve"><tspan x="8" dy="0">EC2</tspan></text></svg></g></g></g><g></g></g></svg>